{"title":"Anniyan 2005 480p tamil","uid":7276933,"size":795363261,"categoryP":"video","categoryS":"movies","magnet":"?xt=urn:btih:a32168e44cd34eab2354db81dfb8eeab0331b3ab&amp;dn=Anniyan+2005+480p+tamil&amp;tr=udp%3A%2F%2Ftracker.openbittorrent.com%3A80&amp;tr=udp%3A%2F%2Fopen.demonii.com%3A1337&amp;tr=udp%3A%2F%2Ftracker.coppersurfer.tk%3A6969&amp;tr=udp%3A%2F%2Fexodus.desync.com%3A6969","seeders":1,"leechers":0,"uploader":"nahtnas","files":-1,"time":1337312057,"description":"Movie:\n &lt;a href=&quot;\nhttp://www.imdb.com/title/tt0376127/&quot; rel=&quot;nofollow&quot; target=&quot;_NEW&quot;&gt;\nhttp://www.imdb.com/title/tt0376127/&lt;/a&gt;\n7.4/10\n\n\nPlot:\n    Anniyan is about Ramanujam alias Ambi who suffers from Multiple Personality Disorder. Ambi (a lawyer), Remo(a suave supermodel) and Anniyan (a vigilante who wreaks havoc on people who cheat, loots or conned Ambi).\n\n\nFile:\n\n\nFormat                                   : MPEG-4\nFormat profile                           : Base Media / Version 2\nCodec ID                                 : mp42\nFile size                                : 759 MiB\nDuration                                 : 3h 1mn\nOverall bit rate mode                    : Variable\nOverall bit rate                         : 584 Kbps\n\n\nVideo\n\nID                                       : 1\nFormat                                   : AVC\nFormat/Info                              : Advanced Video Codec\nFormat profile                           : &lt;a class=&quot;__cf_email__&quot; href=&quot;/cdn-cgi/l/email-protection&quot; data-cfemail=&quot;125f737b7c525e213c22&quot;&gt;[email&amp;#160;protected]&lt;/a&gt;&lt;script cf-hash='f9e31' type=&quot;text/javascript&quot;&gt;\n/* &lt;![CDATA[ */!function(){try{var t=&quot;currentScript&quot;in document?document.currentScript:function(){for(var t=document.getElementsByTagName(&quot;script&quot;),e=t.length;e--;)if(t[e].getAttribute(&quot;cf-hash&quot;))return t[e]}();if(t&amp;&amp;t.previousSibling){var e,r,n,i,c=t.previousSibling,a=c.getAttribute(&quot;data-cfemail&quot;);if(a){for(e=&quot;&quot;,r=parseInt(a.substr(0,2),16),n=2;a.length-n;n+=2)i=parseInt(a.substr(n,2),16)^r,e+=String.fromCharCode(i);e=document.createTextNode(e),c.parentNode.replaceChild(e,c)}}}catch(u){}}();/* ]]&gt; */&lt;/script&gt;\nFormat settings, CABAC                   : Yes\nFormat settings, ReFrames                : 4 frames\nCodec ID                                 : avc1\nCodec ID/Info                            : Advanced Video Coding\nDuration                                 : 3h 1mn\nBit rate mode                            : Variable\nBit rate                                 : 500 Kbps\nWidth                                    : 720 pixels\nHeight                                   : 304 pixels\nDisplay aspect ratio                     : 2.35:1\nFrame rate mode                          : Constant\nFrame rate                               : 24.000 fps\nColor space                              : YUV\nChroma subsampling                       : 4:2:0\nBit depth                                : 8 bits\nScan type                                : Progressive\nBits/(Pixel*Frame)                       : 0.095\nStream size                              : 649 MiB (86%)\nWriting library                          : x264 core 120\n\n\nAudio\n\nID                                       : 2\nFormat                                   : AAC\nFormat/Info                              : Advanced Audio Codec\nFormat profile                           : LC\nCodec ID                                 : 40\nDuration                                 : 3h 1mn\nBit rate mode                            : Variable\nBit rate                                 : 79.9 Kbps\nMaximum bit rate                         : 156 Kbps\nChannel(s)                               : 2 channels\nChannel positions                        : Front: L R\nSampling rate                            : 48.0 KHz\nCompression mode                         : Lossy\nDelay relative to video                  : -83ms\nStream size                              : 104 MiB (14%)\nLanguage                                 : Tamil\n","torrent":{"xt":"urn:btih:a32168e44cd34eab2354db81dfb8eeab0331b3ab","amp;dn":"Anniyan+2005+480p+tamil","amp;tr":["udp%3A%2F%2Ftracker.openbittorrent.com%3A80","udp%3A%2F%2Fopen.demonii.com%3A1337","udp%3A%2F%2Ftracker.coppersurfer.tk%3A6969","udp%3A%2F%2Fexodus.desync.com%3A6969"],"infoHash":"a32168e44cd34eab2354db81dfb8eeab0331b3ab","infoHashBuffer":{"type":"Buffer","data":[163,33,104,228,76,211,78,171,35,84,219,129,223,184,238,171,3,49,179,171]},"announce":[],"urlList":[]}}